<?xml version="1.0" encoding="UTF-8"?><svg id="Capa_1" xmlns="http://www.w3.org/2000/svg" xmlns:xlink="http://www.w3.org/1999/xlink" viewBox="0 0 30.21 30.21"><defs><style>.cls-1{fill:#fff;}.cls-1,.cls-2{stroke-width:0px;}.cls-2{fill:url(#Degradado_sin_nombre_2);}</style><linearGradient id="Degradado_sin_nombre_2" x1=".96" y1="27.14" x2="31.14" y2="1.62" gradientTransform="translate(0 30.29) scale(1 -1)" gradientUnits="userSpaceOnUse"><stop offset="0" stop-color="#ffe185"/><stop offset=".21" stop-color="#ffbb36"/><stop offset=".38" stop-color="#ff5176"/><stop offset=".52" stop-color="#f63395"/><stop offset=".74" stop-color="#a436d2"/><stop offset="1" stop-color="#5f4eed"/></linearGradient></defs><circle class="cls-2" cx="15.1" cy="15.1" r="15.1"/><path class="cls-1" d="M19.79,9.39c-.57,0-1.03.45-1.03,1.03s.45,1.03,1.03,1.03,1.03-.45,1.03-1.03-.45-1.03-1.03-1.03Z"/><path class="cls-1" d="M15.16,10.72c-2.42,0-4.35,1.96-4.35,4.35s1.96,4.35,4.35,4.35,4.35-1.96,4.35-4.35-1.96-4.35-4.35-4.35ZM15.16,17.88c-1.54,0-2.78-1.24-2.78-2.78s1.24-2.78,2.78-2.78,2.78,1.24,2.78,2.78-1.24,2.78-2.78,2.78Z"/><path class="cls-1" d="M18.64,23.92h-7.07c-2.93,0-5.32-2.39-5.32-5.32v-7.07c0-2.93,2.39-5.32,5.32-5.32h7.07c2.93,0,5.32,2.39,5.32,5.32v7.07c0,2.93-2.39,5.32-5.32,5.32ZM11.57,7.88c-2.02,0-3.66,1.63-3.66,3.66v7.07c0,2.02,1.63,3.66,3.66,3.66h7.07c2.02,0,3.66-1.63,3.66-3.66v-7.07c0-2.02-1.63-3.66-3.66-3.66h-7.07Z"/></svg>