<?xml version="1.0" encoding="UTF-8"?><svg id="Capa_1" xmlns="http://www.w3.org/2000/svg" viewBox="0 0 57.43 65.97"><defs><style>.cls-1{fill:#fff;stroke-width:0px;}</style></defs><path class="cls-1" d="M2.43,0C14.84,0,27.25,0,39.67,0c.07.04.14.1.22.12,1.36.45,2.18,1.38,2.24,2.82.07,1.74.04,3.48.05,5.22,0,.25,0,.49,0,.8.36,0,.62,0,.87,0,3.61,0,7.21,0,10.82,0,2.21,0,3.55,1.29,3.55,3.43,0,16.73,0,33.45,0,50.18,0,2.1-1.34,3.4-3.44,3.4-4.68,0-9.36,0-14.04,0-7.15,0-14.3,0-21.45,0-1.75,0-3.08-1.14-3.18-2.88-.1-1.75-.05-3.52-.07-5.28,0-.25,0-.49,0-.79h-.88c-3.54,0-7.09,0-10.63,0-.47,0-.95-.02-1.4-.14C.85,56.49,0,55.23,0,53.45c0-12.22,0-24.44,0-36.65,0-4.44,0-8.89,0-13.33C0,1.76.73.72,2.3.12,2.35.1,2.39.04,2.43,0ZM39.43,28.47c0-8.29,0-16.58,0-24.86,0-.89-.02-.91-.9-.91-11.62,0-23.23,0-34.85,0-.89,0-.95.05-.95.95,0,16.55,0,33.11,0,49.66,0,.94.03.96.99.96,11.59,0,23.19,0,34.78,0q.93,0,.93-.94c0-8.29,0-16.58,0-24.86ZM42.24,53.09c-.06.61-.05,1.18-.18,1.72-.34,1.47-1.64,2.39-3.32,2.39-6.66,0-13.31,0-19.97,0-.25,0-.5,0-.78,0,0,1.81,0,3.52,0,5.24,0,.79.04.83.85.83,11.66,0,23.32,0,34.98,0,.8,0,.87-.07.87-.89,0-16.6,0-33.19,0-49.79,0-.82-.07-.89-.87-.89-3.65,0-7.3,0-10.95,0-.21,0-.42.02-.65.03v10.78c.72.05,1.4.04,2.07.16.65.12,1.07.77,1,1.37-.08.66-.55,1.15-1.22,1.21-.45.04-.9.05-1.35.02-.43-.03-.56.14-.55.55.02,1.82,0,3.65.01,5.47,0,.12.03.24.05.41.27,0,.51,0,.74,0,1.78,0,3.56,0,5.35,0,.99,0,1.62.57,1.61,1.38-.01.79-.62,1.32-1.58,1.33-1.8.01-3.61,0-5.41,0-.23,0-.46,0-.73,0v6.69h.72c1.72,0,3.44,0,5.15,0,.23,0,.47,0,.7.05.73.16,1.2.76,1.13,1.42-.08.71-.58,1.22-1.33,1.23-1.89.03-3.78.02-5.67.02-.23,0-.45,0-.69,0v6.55c.28,0,.51,0,.75,0,1.83,0,3.65-.01,5.48,0,.88,0,1.5.61,1.48,1.37-.01.75-.61,1.31-1.45,1.32-.82.02-1.63,0-2.45,0-1.26,0-2.53,0-3.8,0Z"/><path class="cls-1" d="M20.86,30.65c4.32,0,8.63,0,12.95,0,1.12,0,1.8.78,1.46,1.71-.13.35-.5.67-.83.87-.25.15-.62.12-.94.12-8.46,0-16.92,0-25.38,0-.32,0-.65-.02-.95-.11-.61-.18-.98-.77-.91-1.37.07-.67.55-1.15,1.21-1.21.23-.02.47-.02.71-.02,4.23,0,8.46,0,12.69,0Z"/><path class="cls-1" d="M20.8,21.24c4.21,0,8.42,0,12.63,0,.26,0,.52,0,.77.02.62.07,1.08.56,1.15,1.2.07.56-.29,1.17-.86,1.36-.28.09-.59.12-.88.12-8.55,0-17.09,0-25.64,0-.3,0-.61-.03-.88-.13-.56-.19-.91-.79-.84-1.36.08-.64.52-1.13,1.15-1.19.4-.04.81-.03,1.22-.03,4.06,0,8.12,0,12.18,0Z"/><path class="cls-1" d="M20.8,39.91c4.23,0,8.46,0,12.69,0,1.22,0,1.88.48,1.88,1.36,0,.88-.68,1.36-1.89,1.36-8.48,0-16.96,0-25.45,0-1.03,0-1.57-.33-1.74-1.07-.18-.8.31-1.52,1.12-1.62.28-.03.56-.03.84-.03,4.19,0,8.37,0,12.56,0Z"/><path class="cls-1" d="M18.46,12.1c3.58,0,7.16,0,10.75,0,1.14,0,1.82.92,1.41,1.87-.27.63-.82.84-1.47.84-1.54,0-3.09,0-4.63,0-5.51,0-11.03,0-16.54,0-.91,0-1.46-.31-1.67-.92-.29-.89.3-1.76,1.28-1.77,1.48-.03,2.96-.01,4.44-.01,2.15,0,4.29,0,6.44,0Z"/></svg>